<svg id="Layer_1" data-name="Layer 1" xmlns="http://www.w3.org/2000/svg" viewBox="0 0 512 512"><defs><style>.cls-1{fill:#fe7800;}</style></defs><path class="cls-1" d="M516.09,258.436q0,126.687.092,253.373c.006,3.923-.982,4.872-4.883,4.87q-253.8-.156-507.609,0c-3.923,0-4.871-.982-4.869-4.882q.156-253.8,0-507.609C-1.183.267-.2-.682,3.7-.679q253.8.156,507.609,0c3.924,0,4.876.983,4.87,4.883Q516,131.318,516.09,258.436ZM37.659,347.489c3.431,3.961,7.726,4.959,11.848,6.535a94.846,94.846,0,0,0,53.96,4.211,53.867,53.867,0,0,0,32.519-20.2c15.248-19.839,22.5-42.618,21.136-67.707-.673-12.386-4.986-23.477-15.411-31.29-7.965-5.969-17.2-8.551-26.905-8.82-13.75-.381-27.52-.137-41.28,0-7.823.077-11.059,2.568-11.533,10.272a281.536,281.536,0,0,1-5.168,38.2c-2.254,11.217-4.559,22.43-6.454,33.71-1.111,6.617-3.082,13.121-3.1,19.9-.008,2.81.5,5.67,3.443,6.857,6.458,2.6,12.771-.905,14.692-7.731,2.948-10.472,4.075-21.3,6.413-31.9,3.815-17.293,6.687-34.8,9.88-52.224.561-3.063,2.175-4.409,5.244-4.484,4-.1,8-.619,12-.586,8.8.073,17.513.98,25.1,6.021,9.091,6.045,12.138,15.459,12.527,25.582.759,19.762-4.353,38.317-14.234,55.314-6.415,11.034-16.466,18.36-29.293,19.475a243.007,243.007,0,0,1-42.513-.424C46.47,347.839,42.445,346.221,37.659,347.489Zm256.725,14.916c1.665,0,2.958.049,4.246-.008a34.024,34.024,0,0,0,22.039-9.249c.919-.84,2.084-1.884,1.366-3.3-.612-1.2-2.029-.808-3.135-.828a39.881,39.881,0,0,0-9.361,1.075,33.98,33.98,0,0,1-21.841-2.18c-8.421-3.88-13.192-15.372-11.059-24.5.512-2.192,1.986-2.427,3.812-2.633,8.945-1.009,17.966-1.57,26.678-4.081,16.223-4.674,28.507-13.417,32.773-30.914,3.051-12.515-3.116-23.15-15.829-26.456a44.494,44.494,0,0,0-39.09,7.912c-23.4,17.745-32.44,41.714-25.87,70.757,2.1,9.288,7.04,16.72,16.464,20.538C281.781,361.053,288.031,362.77,294.384,362.405ZM396.1,349.286v-.054c-3.152,0-6.319.191-9.454-.04-6.352-.468-11.439-4.062-15.3-8.485-5.621-6.443-6.581-14.971-6.021-23.065a60.551,60.551,0,0,1,11.741-32.094c4.723-6.425,11.18-10.338,18.665-12.677,5.342-1.67,10.484-2.548,16.062.168,4.179,2.035,9.041.273,10.75-2.472,3.409-5.473.664-11.1-6.134-11.549-9.975-.656-19.911-.954-29.719,2.371-11.6,3.932-21.453,10.277-28.645,20.031a71.508,71.508,0,0,0-13.707,35.094c-1.432,13.46,1.89,25.814,12.045,35.51,5.144,4.912,11.323,7.659,18.435,9.055,12.621,2.479,23.481-1.031,33.6-8.188a2.225,2.225,0,0,0,1.038-2.605c-.334-.97-1.311-.992-2.178-1C403.545,349.279,399.82,349.286,396.1,349.286ZM305.955,155.7a15.36,15.36,0,0,0-3.2.991c-12.346,8.132-24.71,16.238-36.938,24.545a9.288,9.288,0,0,1-5.868,1.942c-10.6-.367-21.194-.732-31.8-.949q-30.741-.63-61.454.949c-12.31.627-24.306,2.385-35.134,8.8-1.184.7-3.649.669-2.841,2.96.549,1.558,2.415,1.9,3.965,1.934q5.793.144,11.591.01c16.914-.407,33.733,1.5,50.608,2.014,7.021.214,14.063.089,21.06.594,18.71,1.348,37.442,2.088,56.184,2.7,3.225.105,5.227-1.2,7.107-3.779,5.105-6.991,9.331-14.534,14.092-21.736A201.507,201.507,0,0,0,305.955,155.7ZM467.749,270.6v-.087c2.148,0,4.312.165,6.441-.038,3.329-.317,6.771-3.936,6.68-6.757-.11-3.375-2.528-5.226-7.008-5.28a63.5,63.5,0,0,0-6.444.131c-3.895.35-5-1.439-4.722-5.111.3-3.927,2.284-7.366,2.75-11.222.346-2.86,1.276-5.926-1.857-7.724-3.159-1.813-6.308-.956-9.325.827-4.944,2.921-6.667,7.477-7.181,12.91-.463,4.886-.5,9.811-6.95,11.76-4.324,1.306-4.615,7.042-.6,9.681,3.215,2.113,3.05,4.556,2.2,7.363-1.324,4.35-2.182,8.853-3.087,13.243-3.4,16.5-6.988,32.985-8.928,49.769-1.072,9.269,2.87,16.734,11.416,19.626a39.854,39.854,0,0,0,14.362,2.181,10.859,10.859,0,0,0,9.451-5.3c1.18-1.962,3.093-4.308,1.62-6.756-1.484-2.466-3.983-2.51-6.831-2.046-7.376,1.2-12.134-2.777-12.745-10.246-.666-8.14,2.1-15.815,3.493-23.65,2.345-13.212,5.375-26.3,7.937-39.476.5-2.594,1.569-3.843,4.173-3.8C464.31,270.625,466.03,270.6,467.749,270.6ZM232.012,283.261c-1.294-1.626-.958-3.129-.8-4.462.507-4.256,2.264-8.267,2.525-12.6.133-2.212.342-4.65-1.511-5.995-3.989-2.9-8.572-1.992-12.8-.687-3.09.954-4.58,3.633-4.56,7.049a116.925,116.925,0,0,1-2.129,20.9c-2.864,16.329-5.825,32.641-8.739,48.962-.954,5.342-2.141,10.661-2.736,16.044-.454,4.117,1.99,6.719,6.028,7.438a10.284,10.284,0,0,0,12.442-9.3,339.465,339.465,0,0,1,9.324-51.434c3.538-13.112,11.348-22.559,24.981-26.376,4.054-1.135,7.731-3.109,10.1-6.829,1.563-2.457,2.118-5.262.524-7.731-1.684-2.608-4.551-2.81-7.34-1.9a31.79,31.79,0,0,0-14.543,10.224C238.552,271.607,235.635,277.482,232.012,283.261Zm173.913-30.48q.249-.867.5-1.735a8.5,8.5,0,0,0-1.417-.815c-8.094-2.792-16.207-5.532-24.3-8.34-11.885-4.126-23.742-8.329-35.632-12.439q-22.695-7.846-45.425-15.6c-11.887-4.069-23.565-8.184-36.6-8.073-15,.129-30-1.75-45.012-2.363-7.337-.3-14.664-1.832-22.179-.071Q300.674,229.1,405.925,252.781Zm-231.8,18.172c-.159,15.391-4.246,30.255-6.254,45.4-1.537,11.6-4.314,23.026-6.463,34.544-.8,4.278.9,7.482,4.377,8.763,4.554,1.675,11.432-1.33,12.487-6.113a229.609,229.609,0,0,0,4.107-24.023c.84-7.547,2.338-14.966,3.514-22.442,2.218-14.1,4.943-28.124,7.3-42.205.8-4.765-2.934-7.931-7.57-6.8a34.291,34.291,0,0,1-4.626.9c-2.878.292-4.614,1.821-5.825,4.4C174.02,265.843,174.112,268.378,174.129,270.953Zm16.718-46.438c-6.942.017-12.681,6.27-12.735,13.877-.063,8.891,7.011,13.276,14.685,9.1,4.588-2.5,8.161-11.277,6.664-16.381C198.072,226.375,195.628,224.5,190.847,224.515Z"/><path class="cls-1" d="M308.715,268.832c9.468-.091,14,5.606,13.253,13.929-1.077,12.006-9.629,18.452-18.4,24.336a48.378,48.378,0,0,1-21.331,8.328c-3.821.446-5-.379-4.378-3.918,1.869-10.591,4.415-20.989,10.745-29.956C293.788,274.213,300.716,269.589,308.715,268.832Z"/></svg>